<svg width="1037" height="1080" viewBox="0 0 1037 1080" fill="none" xmlns="http://www.w3.org/2000/svg">
<path fill-rule="evenodd" clip-rule="evenodd" d="M921.604 199.522C848.177 104.07 747.666 35.9748 630.905 2.96799L626.692 1.77855H622.178C620.974 1.77855 619.168 1.4812 617.062 1.4812C613.752 1.18384 609.839 0.886478 605.325 0.886478C563.797 0.886478 526.782 28.5408 515.046 68.0895V68.3868C501.504 117.154 529.491 167.407 579.144 182.572L580.047 182.87C737.434 226.879 847.274 370.503 847.575 532.563C847.575 732.686 682.966 895.638 480.439 895.638C381.734 895.638 288.746 857.279 219.231 787.4C201.476 769.855 178.003 760.34 152.725 760.34C127.748 760.34 104.275 769.855 86.52 787.102C68.4641 804.349 58.2324 827.543 58.2324 852.521C58.2324 877.499 68.1632 900.693 86.219 917.94C190.943 1022.61 330.876 1080 480.439 1080C786.486 1080 1035.36 833.788 1035.36 531.374C1034.75 410.349 995.633 295.866 921.604 199.522Z" stroke="#0063CF" stroke-width="2"/>
<path fill-rule="evenodd" clip-rule="evenodd" d="M173.2 334.826C223.455 259.594 298.387 205.177 384.754 181.983C408.528 175.441 428.69 160.276 441.33 139.164C454.27 117.457 457.58 92.4785 450.959 68.6898L450.658 67.5004C437.417 27.0596 401.005 0 359.476 0C352.254 0 344.731 0.892075 336.004 3.27094L335.402 3.5683C203.895 38.6566 90.4437 120.728 16.4146 234.021C2.57178 254.539 -2.24312 279.22 3.17364 303.9C8.28947 327.689 22.7342 348.504 43.4984 362.48C58.545 372.293 76.9018 377.645 94.9577 377.645C126.555 377.05 156.649 360.993 173.2 334.826Z" stroke="#0063CF" stroke-width="2"/>
</svg>
